<svg xmlns="http://www.w3.org/2000/svg" xmlns:xlink="http://www.w3.org/1999/xlink" aria-hidden="true" role="img" class="iconify iconify--logos" width="31.88" height="32" preserveAspectRatio="xMidYMid meet" viewBox="0 0 256 257"><defs><linearGradient id="IconifyId1813088fe1fbc01fb466" x1="-.828%" x2="57.636%" y1="7.652%" y2="78.411%"><stop offset="0%" stop-color="#41D1FF"></stop><stop offset="100%" stop-color="#BD34FE"></stop></linearGradient><linearGradient id="IconifyId1813088fe1fbc01fb467" x1="43.376%" x2="50.316%" y1="2.242%" y2="89.03%"><stop offset="0%" stop-color="#FFEA83"></stop><stop offset="8.333%" stop-color="#FFDD35"></stop><stop offset="100%" stop-color="#FFA800"></stop></linearGradient></defs><path fill="url(#IconifyId1813088fe1fbc01fb466)" d="M255.153 37.938L134.897 252.976c-2.483 4.44-8.862 4.466-11.382.048L.875 37.958c-2.746-4.814 1.371-10.646 6.827-9.67l120.385 21.517a6.537 6.537 0 0 0 2.322-.004l117.867-21.483c5.438-.991 9.666 4.796 6.877 9.62Z"></path><path fill="url(#IconifyId1813088fe1fbc01fb467)" d="M185.432.063L96.44 17.501a3.268 3.268 0 0 0-2.634 3.014l-5.474 92.456a3.268 3.268 0 0 0 3.997 3.378l24.777-5.718c2.318-.535 4.413 1.507 3.936 3.838l-7.361 36.047c-.495-2.589-1.588-4.81-3.261-6.483l-11.61-11.61c-1.893-1.894-4.975-1.894-6.868 0l-8.21 8.21c-1.893 1.894-1.893 4.975 0 6.868l11.61 11.61c1.893 1.894 4.975 1.894 6.868 0l8.21-8.21c1.894-1.893 1.894-4.975 0-6.868l-11.61-11.61c-1.673-1.673-3.894-2.766-6.483-3.261l36.047-7.361c2.331-.477 4.373 1.618 3.838 3.936l-5.718 24.777c-.62 2.69 1.56 5.138 4.348 5.138a3.268 3.268 0 0 0 3.378-3.997l-5.474-92.456a3.268 3.268 0 0 0-3.014-2.634L70.568.063c-3.268-.595-6.431 1.907-6.431 5.138v.017c0 2.319 1.507 4.413 3.838 3.936l28.685-5.216c2.331-.477 4.373 1.618 3.838 3.936l-5.718 24.777c-.62 2.69 1.56 5.138 4.348 5.138a3.268 3.268 0 0 0 3.378-3.997l-5.474-92.456a3.268 3.268 0 0 0-3.014-2.634L70.568.063Z"></path></svg>

